<?xml version="1.0" encoding="utf-8"?>
<!-- Generator: Adobe Illustrator 27.5.0, SVG Export Plug-In . SVG Version: 6.00 Build 0)  -->
<svg version="1.1" id="Layer_1" xmlns="http://www.w3.org/2000/svg" xmlns:xlink="http://www.w3.org/1999/xlink" x="0px" y="0px"
	 viewBox="0 0 204.071 61.964" style="enable-background:new 0 0 204.071 61.964;" xml:space="preserve">
<g>
	<path d="M191.158,42.364l7.689-27.74c0.284-1.022,0.07-2.137-0.572-2.981c0,0,0,0-0.001,0c-0.642-0.845-1.66-1.35-2.721-1.35
		h-8.517c-1.704,0-3.126,1.223-3.379,2.906l-1.014,6.696c-1.337-2.339-3.95-4.113-8.825-4.113c-0.568,0-1.143,0.054-1.716,0.159
		c-0.37-0.133-0.762-0.203-1.16-0.203h-6.276c-0.335,0-0.662,0.05-0.971,0.143c0.304-0.781,0.466-1.62,0.466-2.478
		c0-3.807-3.097-6.904-6.905-6.904c-0.662,0-1.309,0.093-1.927,0.274c-0.17-0.308-0.389-0.592-0.654-0.84
		c-0.976-0.912-2.4-1.174-3.624-0.669c-0.625,0.254-2.219,0.681-5.872,0.681c-3.551,0-7.582-0.378-10.822-0.682
		c-2.243-0.21-4.014-0.375-5.179-0.375c-7.525,0-13.519,1.737-17.836,5.165c-0.082-0.715-0.388-1.396-0.89-1.936
		c-0.756-0.815-1.865-1.212-2.967-1.062l-6.407,0.872c-1.424,0.194-2.581,1.268-2.881,2.673l-1.11,5.195
		c-0.129-0.007-0.257-0.011-0.385-0.011c-3.139,0-6.391,1.011-9.047,3.4c0.007-0.786-0.257-1.553-0.762-2.176
		c-0.651-0.805-1.62-1.267-2.656-1.267h-6.276c-0.463,0-0.922,0.095-1.344,0.276c-0.614-0.153-1.239-0.232-1.838-0.232
		c-3.963,0-7.54,1.639-10.143,4.577c-1.807-4.501-5.906-5.056-7.814-5.056c-2.69,0-5.207,0.715-7.368,2.061
		c0.093-0.654,0.141-1.312,0.141-1.972c0-6.385-4.768-13.842-18.207-13.842c-5.775,0-12.297,2.203-17.445,5.894
		c-5.619,4.028-8.841,9.299-8.841,14.464c0,6.279,3.69,9.737,10.389,9.737c0.004,0,0.008,0,0.012,0l-4.591,21.47
		c-0.218,1.014,0.031,2.059,0.684,2.867c0.653,0.806,1.621,1.268,2.657,1.268h9.381c1.605,0,3.011-1.139,3.344-2.708l1.126-5.307
		c-0.044,0.461-0.069,0.908-0.069,1.34c0,4.801,3.257,7.784,8.499,7.784c2.023,0,4.509-0.417,7.387-1.239
		c1.423-0.405,2.418-1.671,2.478-3.149c0.059-1.478-0.832-2.82-2.177-3.319c-0.093-0.065-0.361-0.466-0.361-1.118
		c0-1.424,0.665-3.873,1.316-6.263c0.051-0.188,0.103-0.38,0.156-0.574c1.652,1.285,3.891,1.933,6.695,1.933
		c3.318,0,6.481-1.633,8.897-4.493c1.227,2.511,3.689,4.493,7.84,4.493c1.948,0,3.845-0.628,5.552-1.827
		c1.481,1.04,3.389,1.565,5.692,1.565c1.526,0,3.133-0.54,4.884-1.645c1.222,1.012,3.072,1.906,5.795,1.906
		c1.885,0,3.723-0.587,5.382-1.709c1.303,0.951,2.942,1.448,4.816,1.448c3.788,0,6.407-2.143,7.783-6.369
		c0.401-1.234,0.067-2.572-0.872-3.492c-0.375-0.368-0.826-0.638-1.311-0.799l0.495-2.325c1.492,1.485,3.868,2.571,7.627,2.571
		c0.969,0,1.897-0.415,2.549-1.141c0.646-0.725,0.956-1.692,0.848-2.653c-0.081-0.738-0.346-1.284-0.505-1.61
		c-0.13-0.267-0.346-0.714-0.346-2.248c0-5.331,1.193-7.719,4.706-8.636l-7.854,36.559c-0.218,1.014,0.031,2.058,0.683,2.866
		c0.652,0.807,1.621,1.269,2.658,1.269h8.966c1.6,0,3.005-1.136,3.342-2.702l2.419-11.29h5.438c1.605,0,3.012-1.14,3.344-2.71
		l2.904-13.715c0.798,0.54,1.777,0.823,2.904,0.823c0.27,0,0.538-0.016,0.802-0.048l-0.964,4.555
		c-0.223,1.057-0.335,2.042-0.335,2.926c0,5.039,3.397,8.169,8.866,8.169c0.267,0,0.535-0.016,0.805-0.048l-1.445,6.818
		c-0.244,1.152,0.113,2.331,0.956,3.154c0.834,0.814,2.056,1.152,3.179,0.878l6.582-1.569c1.276-0.304,2.277-1.331,2.55-2.615
		l1.44-6.786c0.519,0.083,1.044,0.124,1.579,0.124c4.148,0,6.995-1.929,8.956-4.574l-0.181,1.194
		c-0.122,0.81,0.065,1.62,0.491,2.306c-2.565,1.365-4.315,4.05-4.315,7.136c0,4.493,3.656,8.149,8.15,8.149
		c4.461,0,8.09-3.656,8.09-8.149c0-2.307-0.976-4.387-2.53-5.862C190.209,44.101,190.889,43.332,191.158,42.364z M54.951,30.424
		c-0.028,0.118-0.055,0.232-0.084,0.343c0.022-0.12,0.044-0.239,0.068-0.359C54.94,30.413,54.945,30.418,54.951,30.424z
		 M35.919,14.805c0,1.999-0.642,3.77-1.573,5.135l1.403-6.508C35.856,13.806,35.919,14.259,35.919,14.805z M31.422,33.6
		c-0.041,2.104-0.865,5.144-1.663,8.087c-0.083,0.305-0.165,0.609-0.246,0.911L31.422,33.6z"/>
	<path d="M191.158,44.247l7.689-27.74c0.284-1.022,0.07-2.137-0.572-2.981c0,0,0,0-0.001,0c-0.642-0.845-1.66-1.35-2.721-1.35
		h-8.517c-1.704,0-3.126,1.223-3.379,2.906l-1.014,6.696c-1.337-2.339-3.95-4.113-8.825-4.113c-0.568,0-1.143,0.054-1.716,0.159
		c-0.37-0.133-0.762-0.203-1.16-0.203h-6.276c-0.335,0-0.662,0.05-0.971,0.143c0.304-0.781,0.466-1.62,0.466-2.478
		c0-3.807-3.097-6.904-6.905-6.904c-0.662,0-1.309,0.093-1.927,0.274c-0.17-0.308-0.389-0.592-0.654-0.84
		c-0.976-0.912-2.4-1.174-3.624-0.669c-0.625,0.254-2.219,0.681-5.872,0.681c-3.551,0-7.582-0.378-10.822-0.682
		c-2.243-0.21-4.014-0.375-5.179-0.375c-7.525,0-13.519,1.737-17.836,5.165c-0.082-0.715-0.388-1.397-0.89-1.936
		c-0.756-0.815-1.865-1.212-2.967-1.062l-6.407,0.872c-1.424,0.194-2.581,1.269-2.881,2.673l-1.11,5.195
		c-0.129-0.007-0.257-0.011-0.385-0.011c-3.139,0-6.391,1.011-9.047,3.4c0.007-0.786-0.257-1.553-0.762-2.176
		c-0.651-0.805-1.62-1.267-2.656-1.267h-6.276c-0.463,0-0.922,0.095-1.344,0.276c-0.614-0.153-1.239-0.232-1.838-0.232
		c-3.963,0-7.54,1.639-10.143,4.577c-1.807-4.501-5.906-5.056-7.814-5.056c-2.69,0-5.207,0.715-7.368,2.061
		c0.093-0.654,0.141-1.312,0.141-1.972c0-6.385-4.768-13.842-18.207-13.842c-5.775,0-12.297,2.203-17.445,5.894
		c-5.619,4.027-8.841,9.299-8.841,14.464c0,6.279,3.69,9.737,10.389,9.737c0.004,0,0.008,0,0.012,0l-4.591,21.47
		c-0.218,1.014,0.031,2.059,0.684,2.867c0.653,0.806,1.621,1.268,2.657,1.268h9.381c1.605,0,3.011-1.139,3.344-2.708l1.126-5.307
		c-0.044,0.461-0.069,0.908-0.069,1.339c0,4.802,3.257,7.784,8.499,7.784c2.023,0,4.509-0.417,7.387-1.239
		c1.423-0.405,2.418-1.671,2.478-3.149c0.059-1.478-0.832-2.82-2.177-3.319c-0.093-0.065-0.361-0.466-0.361-1.118
		c0-1.424,0.665-3.873,1.316-6.263c0.051-0.188,0.103-0.38,0.156-0.574c1.652,1.285,3.891,1.933,6.695,1.933
		c3.318,0,6.481-1.633,8.897-4.493c1.227,2.511,3.689,4.493,7.84,4.493c1.948,0,3.845-0.628,5.552-1.827
		c1.481,1.04,3.389,1.565,5.692,1.565c1.526,0,3.133-0.54,4.884-1.645c1.222,1.012,3.072,1.906,5.795,1.906
		c1.885,0,3.723-0.587,5.382-1.709c1.303,0.951,2.942,1.448,4.816,1.448c3.788,0,6.407-2.143,7.783-6.369
		c0.401-1.234,0.067-2.572-0.872-3.492c-0.375-0.368-0.826-0.638-1.311-0.799l0.495-2.325c1.492,1.485,3.868,2.571,7.627,2.571
		c0.969,0,1.897-0.415,2.549-1.141c0.646-0.725,0.956-1.692,0.848-2.653c-0.081-0.738-0.346-1.284-0.505-1.61
		c-0.13-0.267-0.346-0.714-0.346-2.248c0-5.331,1.193-7.719,4.706-8.636l-7.854,36.559c-0.218,1.014,0.031,2.058,0.683,2.866
		c0.652,0.807,1.621,1.27,2.658,1.27h8.966c1.6,0,3.005-1.136,3.342-2.702l2.419-11.29h5.438c1.605,0,3.012-1.14,3.344-2.71
		l2.904-13.715c0.798,0.54,1.777,0.823,2.904,0.823c0.27,0,0.538-0.016,0.802-0.047l-0.964,4.555
		c-0.223,1.057-0.335,2.042-0.335,2.926c0,5.039,3.397,8.169,8.866,8.169c0.267,0,0.535-0.016,0.805-0.048l-1.445,6.817
		c-0.244,1.152,0.113,2.331,0.956,3.154c0.834,0.814,2.056,1.152,3.179,0.878l6.582-1.569c1.276-0.304,2.277-1.331,2.55-2.615
		l1.44-6.786c0.519,0.083,1.044,0.124,1.579,0.124c4.148,0,6.995-1.929,8.956-4.574l-0.181,1.194
		c-0.122,0.81,0.065,1.62,0.491,2.306c-2.565,1.365-4.315,4.05-4.315,7.136c0,4.493,3.656,8.149,8.15,8.149
		c4.461,0,8.09-3.656,8.09-8.149c0-2.307-0.976-4.387-2.53-5.862C190.209,45.984,190.889,45.215,191.158,44.247z M54.951,32.307
		c-0.028,0.118-0.055,0.232-0.084,0.343c0.022-0.12,0.044-0.239,0.068-0.359C54.94,32.296,54.945,32.301,54.951,32.307z
		 M35.919,16.687c0,1.999-0.642,3.77-1.573,5.135l1.403-6.508C35.856,15.689,35.919,16.141,35.919,16.687z M31.422,35.483
		c-0.041,2.104-0.865,5.144-1.663,8.086c-0.083,0.305-0.165,0.609-0.246,0.911L31.422,35.483z"/>
	<g>
		<path style="fill:#FFFFFF;" d="M182.054,28.633c0.191-1.238,0.284-2.328,0.284-3.333c0-5.351-2.786-7.952-8.519-7.952
			c-0.628,0-1.266,0.079-1.902,0.234c-0.291-0.181-0.629-0.278-0.975-0.278h-6.276c-0.869,0-1.63,0.617-1.81,1.467l-3.304,15.588
			c-0.935,0.692-1.305,0.77-1.423,0.77c-0.125,0-0.229-0.005-0.315-0.013c0.025-0.232,0.08-0.533,0.121-0.76l3.138-14.819
			c0.116-0.549-0.02-1.113-0.373-1.548c-0.092-0.114-0.196-0.214-0.308-0.302c1.368-0.98,2.203-2.556,2.203-4.286
			c0-2.943-2.394-5.337-5.337-5.337c-1.185,0-2.303,0.394-3.207,1.091c0.015-0.049,0.031-0.097,0.046-0.144
			c0.228-0.683,0.036-1.442-0.49-1.936c-0.528-0.493-1.299-0.636-1.963-0.363c-0.893,0.363-2.739,0.797-6.463,0.797
			c-3.616,0-7.688-0.381-10.968-0.689c-2.202-0.206-3.942-0.369-5.033-0.369c-7.618,0-13.543,1.836-17.613,5.457
			c-1.034,0.92-1.943,1.972-2.706,3.125l0.896-4.211c0.126-0.588-0.043-1.203-0.453-1.644c-0.409-0.441-1.006-0.657-1.606-0.575
			l-6.407,0.872c-0.771,0.105-1.398,0.687-1.56,1.447l-1.421,6.655c-0.541-0.153-1.079-0.231-1.606-0.231
			c-6.289,0-13.044,4.654-13.26,17.682c-0.207,0.09-0.307,0.1-0.339,0.1c-0.125,0-0.229-0.005-0.315-0.013
			c0.024-0.224,0.076-0.515,0.12-0.76l3.138-14.818c0.116-0.549-0.019-1.113-0.372-1.549c-0.353-0.436-0.877-0.685-1.438-0.685
			h-6.276c-0.423,0-0.825,0.142-1.149,0.4c-0.673-0.234-1.37-0.356-2.033-0.356c-4.325,0-8.124,2.209-10.445,6.066
			c-0.176,0.09-0.337,0.154-0.496,0.195c-0.724-5.849-4.678-6.74-7.015-6.74c-3.709,0-7.047,1.529-9.398,4.304
			c-1.51,1.782-2.596,4.061-3.237,6.79c-0.409-0.649-0.911-1.215-1.505-1.694c3.359-2.91,5.346-6.931,5.346-10.878
			c0-5.662-4.358-12.275-16.639-12.275c-11.127,0-24.719,8.671-24.719,18.79c0,5.421,2.968,8.17,8.821,8.17
			c0.525,0,1.028-0.225,1.379-0.616c0.35-0.392,0.518-0.916,0.46-1.438c-0.053-0.475-0.226-0.832-0.365-1.12
			c-0.2-0.413-0.535-1.104-0.535-3.106c0-4.492,1.59-8.121,4.616-10.578l-8.601,40.225c-0.118,0.549,0.017,1.114,0.37,1.551
			c0.354,0.437,0.878,0.687,1.438,0.687h9.381c0.869,0,1.63-0.617,1.81-1.466l4.951-23.334c0.181-0.015,0.36-0.023,0.536-0.023
			c1.206,0,2.059,0.185,2.059,2.58c0,2.317-0.874,5.539-1.719,8.659c-0.858,3.165-1.669,6.154-1.669,8.476
			c0,3.95,2.527,6.216,6.932,6.216c1.878,0,4.219-0.397,6.958-1.179c0.77-0.219,1.309-0.905,1.341-1.705
			c0.032-0.8-0.45-1.527-1.2-1.807c-0.776-0.291-1.339-1.371-1.339-2.567c0-1.633,0.663-4.072,1.364-6.653
			c0.3-1.103,0.627-2.306,0.918-3.522c1.283,2.488,3.738,3.703,7.451,3.703c3.781,0,7.332-2.535,9.51-6.633
			c0.256,3.333,2.252,6.633,7.226,6.633c1.987,0,3.909-0.788,5.588-2.287c1.279,1.344,3.178,2.026,5.656,2.026
			c1.495,0,3.155-0.689,5.067-2.103c0.96,1.164,2.666,2.365,5.612,2.365c1.941,0,3.818-0.751,5.46-2.176
			c1.117,1.255,2.742,1.915,4.738,1.915c1.962,0,4.749-0.548,6.292-5.287c0.216-0.663,0.032-1.387-0.479-1.889
			c-0.498-0.489-1.251-0.655-1.9-0.427c-0.02,0.005-0.076,0.013-0.219,0.018c0.022-0.219,0.074-0.487,0.165-0.854l1.59-7.465
			c0.793,3.645,3.567,5.489,8.275,5.489c0.525,0,1.027-0.225,1.379-0.617c0.35-0.392,0.518-0.916,0.46-1.437
			c-0.051-0.467-0.22-0.815-0.357-1.097c-0.188-0.388-0.504-1.038-0.504-2.933c0-6.007,1.409-9.891,8.291-10.561l-8.339,38.813
			c-0.118,0.549,0.017,1.114,0.37,1.552c0.353,0.437,0.878,0.687,1.439,0.687h8.966c0.866,0,1.627-0.615,1.809-1.463l2.695-12.577
			c0.136,0.032,0.277,0.049,0.419,0.049h6.276c0.869,0,1.63-0.617,1.81-1.468l3.49-16.482c0.169-0.139,0.307-0.238,0.426-0.311
			c0.52,1.764,1.67,2.658,3.426,2.658c1.082,0,2.088-0.329,2.924-0.935l-1.553,7.333c-0.2,0.951-0.302,1.827-0.302,2.604
			c0,4.133,2.728,6.601,7.298,6.601c0.903,0,1.855-0.246,2.888-0.751l-1.995,9.413c-0.132,0.624,0.061,1.262,0.518,1.708
			c0.451,0.44,1.116,0.621,1.721,0.475l6.581-1.569c0.691-0.165,1.233-0.72,1.381-1.416l1.777-8.371
			c0.917,0.314,1.831,0.467,2.776,0.467C176.79,42.754,180.723,37.869,182.054,28.633z M173.363,24.473
			c0,0.958-0.178,2.314-0.529,4.031c-1.52,7.325-2.385,7.325-2.85,7.325c-0.232,0-0.469,0-0.706-0.028l2.652-12.376
			c0.322-0.158,0.605-0.238,0.843-0.238C173.272,23.185,173.363,23.185,173.363,24.473z M152.198,14.97
			c0.277,0.898,0.787,1.703,1.479,2.335h-0.691c-0.869,0-1.631,0.617-1.81,1.467l-0.129,0.61c-0.45-0.687-1.087-1.228-1.866-1.585
			C150.431,17.269,151.431,16.33,152.198,14.97z M138.081,17.305h-1.81l0.069-0.321l0.335,0.062
			C137.147,17.134,137.616,17.221,138.081,17.305z M94.907,33.525c-0.108,0.435-0.189,0.839-0.246,1.229
			c-0.665,0.87-0.986,0.983-0.968,0.986c-0.377,0-0.675-0.003-0.675-1.244c0-6.023,2.671-11.007,4.034-11.007
			c0.002,0,0.004,0,0.006,0L94.907,33.525z M75.146,23.49l-2.12,10.035c-0.104,0.415-0.185,0.815-0.243,1.194
			c-0.672,0.904-1.035,1.018-1.015,1.021c-0.377,0-0.675-0.003-0.675-1.244c0-6.023,2.671-11.007,4.034-11.007
			C75.134,23.49,75.14,23.49,75.146,23.49z M55.058,26.608c0,1.377,0.597,2.553,1.617,3.222c-0.637,3.446-1.799,5.301-2.599,5.301
			c-0.778,0-1.069,0-1.069-1.461c0-3.045,1.223-7.824,2.746-9.716C55.305,24.743,55.058,25.661,55.058,26.608z M34.565,11.481
			c0.105-0.485,0.009-0.987-0.256-1.397c2.571,0.741,3.177,2.874,3.177,4.72c0,4.519-2.781,8.083-5.618,9.192L34.565,11.481z"/>
		<path style="fill:#FFFFFF;" d="M183.783,43.858c-3.63,0-6.583,2.927-6.583,6.524c0,3.629,2.953,6.582,6.583,6.582
			c3.597,0,6.523-2.952,6.523-6.582C190.306,46.785,187.38,43.858,183.783,43.858z"/>
		<path style="fill:#FFFFFF;" d="M197.027,12.591c-0.348-0.458-0.899-0.731-1.473-0.731h-8.517c-0.923,0-1.692,0.662-1.829,1.574
			l-4.201,27.741c-0.08,0.534,0.076,1.074,0.427,1.483c0.352,0.409,0.864,0.644,1.403,0.644h5.027c0.828,0,1.561-0.558,1.783-1.356
			l7.689-27.741C197.49,13.651,197.374,13.048,197.027,12.591z"/>
	</g>
	<g>
		<path d="M33.158,11.393L29.9,26.509h0.586c5.408,0,9.252-6.32,9.252-11.402c0-3.648-2.085-6.841-7.167-6.841
			c-10.555,0-17.591,5.929-17.591,15.832c0,3.322,0.847,3.843,0.912,4.43c-4.495,0-6.971-1.629-6.971-6.32
			c0-8.665,11.988-16.939,22.868-16.939c10.294,0,14.789,5.081,14.789,10.424c0,3.974-2.541,8.535-7.036,11.141
			c3.387,0.977,4.495,3.453,4.495,6.515c0,5.343-3.193,12.444-3.193,16.483c0,1.955,0.978,3.714,2.541,4.3
			c-2.736,0.782-4.886,1.108-6.45,1.108c-4.235,0-5.082-2.216-5.082-4.366c0-4.3,3.388-12.183,3.388-17.135
			c0-2.606-0.978-4.43-3.909-4.43c-0.587,0-1.303,0.065-2.085,0.26l-5.213,24.563h-9.382l8.861-41.437L33.158,11.393z"/>
		<path d="M62.497,25.429c0.261,0.261,0.654,0.392,1.264,0.392c2.048,0,2.964-1.482,4.576-2.136l0.174,0.915
			c-1.351,1.7-3.617,3.138-6.145,3.835c-0.828,8.76-5.579,13.075-9.937,13.075c-4.664,0-6.668-1.961-6.668-7.147
			c0-10.721,5.448-15.341,11.462-15.341C61.363,19.022,62.41,22.247,62.497,25.429z M59.141,28.872
			c-1.264,0-1.831-0.915-1.831-1.961c0-1.264,0.741-2.615,1.918-3.051c-0.131-1.439-0.61-2.266-1.831-2.266
			c-4.097,0-5.84,8.891-5.84,12.378c0,2.615,1.22,3.312,2.92,3.312C57.136,37.283,58.618,33.099,59.141,28.872z"/>
		<path d="M84.638,19.458L81.5,34.276c-0.087,0.479-0.174,0.959-0.174,1.351c0,0.959,0.436,1.656,2.179,1.656
			c1.744,0,4.01-2.441,5.753-3.835h1.482c-2.005,2.005-6.93,7.801-10.329,7.801c-2.833,0-4.75-1.046-5.317-3.312
			c-1.308,1.787-3.269,3.573-5.927,3.573c-4.184,0-5.404-2.963-5.404-5.535c0-7.496,2.702-16.474,11.419-16.474
			c1.046,0,2.136,0.436,2.92,1.09l0.262-1.133H84.638z M69.645,34.799c0,2.615,1.438,3.095,2.528,3.095
			c1.003,0,1.962-0.959,2.789-2.179c0.044-0.436,0.131-0.915,0.261-1.438l2.441-11.549c-0.697-0.61-1.525-0.785-2.135-0.785
			C72.26,21.942,69.645,28.872,69.645,34.799z"/>
		<path d="M103.336,34.276c-0.131,0.523-0.218,1.002-0.218,1.482c0,0.915,0.349,1.613,1.569,1.613c0.305,0,0.785,0,1.133-0.131
			c-1.22,3.748-3.051,4.01-4.533,4.01c-2.528,0-3.879-1.307-4.315-3.269c-1.308,1.787-3.269,3.53-5.884,3.53
			c-4.184,0-5.404-2.963-5.404-5.535c0-7.496,2.702-16.474,11.419-16.474c1.046,0,2.135,0.48,2.92,1.09l1.917-8.978l6.407-0.872
			L103.336,34.276z M91.568,34.799c0,2.615,1.438,3.095,2.528,3.095c1.002,0,1.918-0.959,2.746-2.136
			c0.044-0.479,0.131-0.959,0.261-1.482l2.484-11.593c-0.698-0.567-1.525-0.741-2.136-0.741
			C94.183,21.942,91.568,28.872,91.568,34.799z"/>
		<path d="M135.308,15.143l-8.592,40.097h-8.966l8.842-41.156c-6.974,0-12.453,1.992-12.453,12.515c0,3.175,0.81,3.673,0.872,4.234
			c-4.296,0-6.663-1.557-6.663-6.039c0-8.281,5.853-16.188,21.232-16.188c2.553,0,9.9,1.058,16.002,1.058
			c2.865,0,5.479-0.249,7.161-0.934c-0.872,2.615-0.934,8.032-5.915,8.032C143.527,16.762,139.48,15.89,135.308,15.143z"/>
		<path d="M142.535,19.458l-0.48,2.179c1.569-1.22,3.313-2.179,5.143-2.179c1.961,0,3.138,1.133,3.138,2.789
			c0,1.525-1.133,3.4-3.269,3.4c-2.441,0-1.22-2.876-2.528-2.876s-2.005,0.479-3.007,1.395l-3.618,17.084h-6.276l4.62-21.792
			H142.535z"/>
		<path d="M159.663,19.458l-3.138,14.818c-0.088,0.479-0.175,0.959-0.175,1.351c0,0.959,0.436,1.656,2.179,1.656
			c1.743,0,4.01-2.441,5.753-3.835h1.482c-2.005,2.005-6.93,7.801-10.329,7.801c-3.356,0-5.448-1.482-5.448-4.75
			c0-0.654,0.087-1.395,0.261-2.223l3.138-14.818H159.663z M157.658,10.218c1.918,0,3.487,1.569,3.487,3.486
			c0,1.918-1.569,3.443-3.487,3.443c-1.917,0-3.443-1.525-3.443-3.443C154.215,11.787,155.741,10.218,157.658,10.218z"/>
		<path d="M171.344,19.458l-0.174,0.828c0.915-0.479,1.962-0.785,3.051-0.785c4.533,0,6.668,1.613,6.668,6.102
			c0,0.915-0.087,1.917-0.261,3.051c-1.351,9.371-5.099,12.552-9.545,12.552c-1.438,0-2.789-0.479-4.097-1.308l-2.266,10.678
			l-6.581,1.569l6.93-32.687H171.344z M175.048,29.177c0.392-1.917,0.566-3.356,0.566-4.402c0-2.615-1.046-3.138-2.44-3.138
			c-0.828,0-1.657,0.349-2.484,0.915l-3.138,14.644c1.046,0.785,2.135,0.785,2.833,0.785
			C172.564,37.981,173.61,36.106,175.048,29.177z"/>
		<path d="M184.184,55.416c-2.603,0-4.732-2.129-4.732-4.731c0-2.603,2.129-4.673,4.732-4.673c2.602,0,4.672,2.07,4.672,4.673
			C188.857,53.286,186.787,55.416,184.184,55.416z M183.238,41.753l4.2-27.741h8.517l-7.689,27.741H183.238z"/>
	</g>
	<g>
		<path style="fill:#DB2323;" d="M32.354,10.589l-3.258,15.115h0.586c5.408,0,9.252-6.32,9.252-11.402
			c0-3.648-2.085-6.841-7.167-6.841c-10.555,0-17.591,5.929-17.591,15.832c0,3.322,0.847,3.843,0.912,4.43
			c-4.495,0-6.971-1.629-6.971-6.32c0-8.665,11.988-16.939,22.868-16.939c10.294,0,14.79,5.082,14.79,10.424
			c0,3.974-2.541,8.535-7.036,11.141c3.388,0.977,4.495,3.453,4.495,6.515c0,5.343-3.193,12.444-3.193,16.484
			c0,1.955,0.978,3.714,2.541,4.3c-2.736,0.782-4.886,1.108-6.45,1.108c-4.235,0-5.082-2.216-5.082-4.366
			c0-4.3,3.388-12.183,3.388-17.135c0-2.606-0.978-4.43-3.909-4.43c-0.587,0-1.303,0.065-2.085,0.261l-5.213,24.562H13.85
			l8.861-41.437L32.354,10.589z"/>
		<path style="fill:#DB2323;" d="M61.693,24.625c0.261,0.261,0.654,0.392,1.264,0.392c2.048,0,2.964-1.482,4.576-2.136l0.174,0.915
			c-1.351,1.7-3.617,3.138-6.145,3.835c-0.828,8.76-5.578,13.075-9.937,13.075c-4.664,0-6.668-1.961-6.668-7.147
			c0-10.721,5.448-15.341,11.462-15.341C60.559,18.218,61.605,21.443,61.693,24.625z M58.337,28.067
			c-1.264,0-1.831-0.915-1.831-1.961c0-1.264,0.741-2.615,1.918-3.051c-0.131-1.439-0.61-2.266-1.831-2.266
			c-4.097,0-5.84,8.891-5.84,12.378c0,2.615,1.22,3.312,2.92,3.312C56.332,36.479,57.814,32.295,58.337,28.067z"/>
		<path style="fill:#DB2323;" d="M83.834,18.653l-3.138,14.818c-0.087,0.479-0.174,0.959-0.174,1.351
			c0,0.959,0.436,1.656,2.179,1.656c1.744,0,4.01-2.441,5.753-3.835h1.482c-2.005,2.005-6.93,7.801-10.329,7.801
			c-2.833,0-4.75-1.046-5.317-3.312c-1.308,1.787-3.269,3.573-5.927,3.573c-4.184,0-5.404-2.964-5.404-5.535
			c0-7.496,2.702-16.474,11.419-16.474c1.046,0,2.136,0.436,2.92,1.09l0.262-1.133H83.834z M68.841,33.995
			c0,2.615,1.438,3.095,2.528,3.095c1.003,0,1.962-0.959,2.789-2.179c0.044-0.436,0.131-0.915,0.261-1.438l2.441-11.549
			c-0.697-0.611-1.525-0.785-2.135-0.785C71.456,21.138,68.841,28.067,68.841,33.995z"/>
		<path style="fill:#DB2323;" d="M102.531,33.472c-0.131,0.523-0.218,1.002-0.218,1.482c0,0.915,0.349,1.612,1.569,1.612
			c0.305,0,0.785,0,1.133-0.131c-1.22,3.748-3.051,4.01-4.532,4.01c-2.528,0-3.879-1.307-4.315-3.269
			c-1.308,1.787-3.269,3.53-5.883,3.53c-4.184,0-5.404-2.964-5.404-5.535c0-7.496,2.702-16.474,11.419-16.474
			c1.046,0,2.135,0.48,2.92,1.09l1.918-8.978l6.407-0.872L102.531,33.472z M90.764,33.995c0,2.615,1.438,3.095,2.528,3.095
			c1.002,0,1.917-0.959,2.746-2.136c0.044-0.479,0.131-0.959,0.261-1.482l2.484-11.593c-0.698-0.567-1.525-0.741-2.136-0.741
			C93.379,21.138,90.764,28.067,90.764,33.995z"/>
		<path style="fill:#FF9C0D;" d="M134.504,14.339l-8.592,40.097h-8.966l8.842-41.156c-6.974,0-12.453,1.992-12.453,12.515
			c0,3.175,0.81,3.673,0.872,4.234c-4.296,0-6.663-1.557-6.663-6.039c0-8.281,5.853-16.188,21.232-16.188
			c2.553,0,9.9,1.058,16.002,1.058c2.865,0,5.479-0.249,7.161-0.934c-0.872,2.615-0.934,8.032-5.915,8.032
			C142.723,15.958,138.675,15.086,134.504,14.339z"/>
		<path style="fill:#FF9C0D;" d="M141.731,18.653l-0.48,2.179c1.569-1.22,3.313-2.179,5.143-2.179c1.961,0,3.138,1.133,3.138,2.789
			c0,1.525-1.133,3.4-3.268,3.4c-2.441,0-1.22-2.877-2.528-2.877c-1.308,0-2.005,0.479-3.007,1.395l-3.618,17.084h-6.276
			l4.62-21.792H141.731z"/>
		<path style="fill:#FF9C0D;" d="M158.859,18.653l-3.138,14.818c-0.088,0.479-0.175,0.959-0.175,1.351
			c0,0.959,0.436,1.656,2.179,1.656s4.01-2.441,5.753-3.835h1.482c-2.005,2.005-6.93,7.801-10.329,7.801
			c-3.356,0-5.448-1.482-5.448-4.75c0-0.654,0.087-1.395,0.261-2.223l3.138-14.818H158.859z M156.854,9.414
			c1.918,0,3.487,1.569,3.487,3.486c0,1.918-1.569,3.443-3.487,3.443c-1.918,0-3.443-1.525-3.443-3.443
			C153.411,10.983,154.936,9.414,156.854,9.414z"/>
		<path style="fill:#FF9C0D;" d="M170.54,18.653l-0.174,0.828c0.915-0.479,1.962-0.785,3.051-0.785c4.533,0,6.668,1.613,6.668,6.102
			c0,0.915-0.087,1.917-0.261,3.051c-1.351,9.37-5.099,12.552-9.545,12.552c-1.438,0-2.789-0.479-4.097-1.308l-2.267,10.678
			l-6.581,1.569l6.93-32.687H170.54z M174.244,28.372c0.392-1.917,0.566-3.356,0.566-4.402c0-2.615-1.046-3.138-2.44-3.138
			c-0.828,0-1.656,0.349-2.484,0.915l-3.138,14.644c1.046,0.785,2.135,0.785,2.833,0.785
			C171.76,37.176,172.806,35.302,174.244,28.372z"/>
		<path style="fill:#FF9C0D;" d="M183.38,54.611c-2.603,0-4.732-2.129-4.732-4.731c0-2.603,2.129-4.673,4.732-4.673
			c2.602,0,4.672,2.07,4.672,4.673C188.053,52.482,185.983,54.611,183.38,54.611z M182.434,40.949l4.2-27.741h8.517l-7.689,27.741
			H182.434z"/>
	</g>
	<g>
		<g>
			<path style="fill:#F23B3B;" d="M14.969,27.359c-2.513-0.703-3.865-2.493-3.865-5.955c0-8.296,10.988-16.228,21.472-16.89
				c-0.516-0.028-1.041-0.05-1.59-0.05c-10.88,0-22.868,8.274-22.868,16.939c0,4.691,2.476,6.32,6.971,6.32
				C15.075,27.608,15.03,27.493,14.969,27.359z"/>
			<path style="fill:#F23B3B;" d="M41.92,14.302c0-3.648-2.085-6.841-7.167-6.841c-0.63,0-1.246,0.023-1.851,0.064
				c4.255,0.447,6.031,3.415,6.031,6.776c0,4.254-2.698,9.36-6.747,10.917l-0.105,0.486h0.586
				C38.076,25.704,41.92,19.385,41.92,14.302z"/>
			<path style="fill:#F23B3B;" d="M34.037,50.071c0-4.3,3.388-12.183,3.388-17.135c0-2.606-0.978-4.43-3.909-4.43
				c-0.471,0-1.028,0.046-1.633,0.163c1.885,0.498,2.555,2.114,2.555,4.267c0,4.952-3.388,12.835-3.388,17.135
				c0,2.15,0.847,4.366,5.082,4.366c0.471,0,1.002-0.034,1.579-0.097C34.69,53.894,34.037,51.957,34.037,50.071z"/>
			<polygon style="fill:#F23B3B;" points="32.264,11.005 32.354,10.589 22.711,11.892 13.85,53.329 16.837,53.329 25.697,11.892 			
				"/>
		</g>
		<g>
			<path style="fill:#F23B3B;" d="M64.679,24.625c0.261,0.261,0.654,0.392,1.264,0.392c0.231,0,0.444-0.024,0.649-0.059
				c0.417-0.369,0.793-0.757,1.115-1.162l-0.174-0.915c-1.079,0.438-1.852,1.238-2.854,1.725
				C64.678,24.612,64.679,24.618,64.679,24.625z"/>
			<path style="fill:#F23B3B;" d="M47.943,33.559c0-9.731,4.491-14.421,9.816-15.208c-0.407-0.085-0.851-0.133-1.341-0.133
				c-6.014,0-11.462,4.62-11.462,15.341c0,5.187,2.005,7.147,6.668,7.147c0.399,0,0.8-0.049,1.202-0.121
				C49.435,40.096,47.943,38.026,47.943,33.559z"/>
			<path style="fill:#F23B3B;" d="M58.424,23.056c-1.177,0.436-1.918,1.787-1.918,3.051c0,1.046,0.567,1.961,1.831,1.961
				c-0.431,3.483-1.515,6.931-3.37,8.039c0.467,0.27,1.045,0.373,1.693,0.373c2.659,0,4.14-4.184,4.664-8.412
				c-1.264,0-1.831-0.915-1.831-1.961c0-1.264,0.741-2.615,1.918-3.051c-0.131-1.439-0.61-2.266-1.831-2.266
				c-0.618,0-1.181,0.205-1.694,0.56C58.193,21.737,58.356,22.313,58.424,23.056z"/>
		</g>
		<g>
			<path style="fill:#F23B3B;" d="M85.687,36.479c0.187,0,0.381-0.033,0.578-0.085c1.512-1.447,2.842-2.922,3.67-3.751h-1.482
				c-1.316,1.053-2.931,2.702-4.394,3.446C84.394,36.332,84.903,36.479,85.687,36.479z"/>
			<path style="fill:#F23B3B;" d="M80.283,19.787l0.262-1.133h-2.987l-0.012,0.053C78.535,18.753,79.544,19.171,80.283,19.787z"/>
			<path style="fill:#F23B3B;" d="M77.275,37.133c-0.513,0.701-1.129,1.401-1.846,1.994c0.949,0.89,2.376,1.318,4.177,1.318
				c0.352,0,0.723-0.075,1.103-0.189C78.915,39.865,77.705,38.852,77.275,37.133z"/>
			<path style="fill:#F23B3B;" d="M77.145,34.91c0.044-0.436,0.131-0.915,0.261-1.438l2.441-11.549
				c-0.697-0.611-1.525-0.785-2.135-0.785c-0.474,0-0.933,0.149-1.374,0.417c0.179,0.1,0.354,0.221,0.523,0.368L74.42,33.472
				c-0.131,0.523-0.218,1.002-0.262,1.438c-0.448,0.661-0.936,1.238-1.447,1.635c0.492,0.427,1.11,0.544,1.645,0.544
				C75.358,37.089,76.317,36.13,77.145,34.91z"/>
			<path style="fill:#F23B3B;" d="M65.944,35.171c0-6.927,2.312-15.115,9.542-16.318c-0.365-0.099-0.74-0.156-1.11-0.156
				c-8.716,0-11.419,8.978-11.419,16.474c0,2.571,1.22,5.535,5.404,5.535c0.49,0,0.956-0.061,1.399-0.172
				C66.851,39.875,65.944,37.381,65.944,35.171z"/>
		</g>
		<g>
			<path style="fill:#F23B3B;" d="M102.206,19.787l1.917-8.978l3.331-0.453l0.089-0.419l-6.407,0.872l-1.687,7.897
				C100.445,18.753,101.462,19.208,102.206,19.787z"/>
			<path style="fill:#F23B3B;" d="M99.024,34.954c0.044-0.479,0.131-0.959,0.261-1.482l2.484-11.593
				c-0.698-0.567-1.525-0.741-2.136-0.741c-0.469,0-0.923,0.147-1.359,0.408c0.173,0.093,0.345,0.2,0.508,0.333l-2.484,11.593
				c-0.131,0.523-0.218,1.002-0.261,1.482c-0.445,0.632-0.915,1.195-1.41,1.586c0.493,0.431,1.114,0.549,1.651,0.549
				C97.281,37.089,98.196,36.13,99.024,34.954z"/>
			<path style="fill:#F23B3B;" d="M99.155,37.176c-0.535,0.731-1.182,1.453-1.936,2.053c0.726,0.76,1.789,1.215,3.264,1.215
				c0.477,0,0.99-0.029,1.507-0.191C100.406,39.833,99.496,38.709,99.155,37.176z"/>
			<path style="fill:#F23B3B;" d="M87.867,35.171c0-6.92,2.307-15.096,9.517-16.314c-0.357-0.1-0.723-0.16-1.085-0.16
				c-8.716,0-11.419,8.978-11.419,16.474c0,2.571,1.22,5.535,5.404,5.535c0.489,0,0.955-0.061,1.398-0.172
				C88.774,39.875,87.867,37.381,87.867,35.171z"/>
		</g>
		<g>
			<path style="fill:#FF9C0D;" d="M147.764,8.86c1.41,0,2.758-0.061,3.966-0.204c0.066-0.258,0.133-0.507,0.208-0.729
				c-1.403,0.571-3.459,0.836-5.765,0.909C146.709,8.85,147.242,8.86,147.764,8.86z"/>
			<path style="fill:#FF9C0D;" d="M110.53,23.99c0-7.941,5.388-15.534,19.392-16.144c-0.446-0.028-0.834-0.044-1.147-0.044
				c-15.379,0-21.232,7.908-21.232,16.188c0,4.483,2.367,6.039,6.663,6.039c-0.014-0.125-0.066-0.248-0.137-0.397
				C111.769,28.931,110.53,27.225,110.53,23.99z"/>
			<path style="fill:#FF9C0D;" d="M125.753,13.438l-8.808,40.999h2.987l8.842-41.156C127.729,13.28,126.718,13.327,125.753,13.438z"
				/>
			<path style="fill:#FF9C0D;" d="M137.49,14.339l-0.113,0.527c3.134,0.577,6.111,1.092,8.645,1.092
				c0.371,0,0.707-0.038,1.025-0.095C144.162,15.624,140.871,14.944,137.49,14.339z"/>
		</g>
		<g>
			<path style="fill:#FF9C0D;" d="M144.238,20.833c1.107-0.861,2.303-1.585,3.554-1.94c-0.406-0.152-0.871-0.239-1.397-0.239
				c-0.59,0-1.17,0.108-1.739,0.284L144.238,20.833z"/>
			<polygon style="fill:#FF9C0D;" points="135.455,18.653 130.835,40.445 133.822,40.445 138.441,18.653 			"/>
			<path style="fill:#FF9C0D;" d="M146.722,21.966c-0.975,0-1.61,0.267-2.286,0.782c0.199,0.852,0.221,2.095,1.827,2.095
				c0.673,0,1.246-0.187,1.716-0.49C147.278,23.533,147.688,21.966,146.722,21.966z"/>
		</g>
		<g>
			<path style="fill:#FF9C0D;" d="M160.712,36.479c0.187,0,0.38-0.033,0.578-0.085c1.512-1.447,2.842-2.922,3.67-3.751h-1.482
				c-1.316,1.053-2.931,2.702-4.394,3.446C159.419,36.332,159.928,36.479,160.712,36.479z"/>
			<path style="fill:#FF9C0D;" d="M156.854,16.344c0.538,0,1.042-0.13,1.498-0.345c-1.158-0.551-1.954-1.718-1.954-3.098
				c0-1.38,0.796-2.569,1.954-3.133c-0.456-0.22-0.96-0.353-1.498-0.353c-1.918,0-3.443,1.569-3.443,3.486
				C153.411,14.819,154.936,16.344,156.854,16.344z"/>
			<path style="fill:#FF9C0D;" d="M152.17,35.695c0-0.654,0.087-1.395,0.261-2.223l3.138-14.818h-2.987l-3.138,14.818
				c-0.174,0.828-0.261,1.569-0.261,2.223c0,3.269,2.092,4.75,5.448,4.75c0.353,0,0.726-0.075,1.107-0.19
				C153.501,39.765,152.17,38.299,152.17,35.695z"/>
		</g>
		<g>
			<path style="fill:#FF9C0D;" d="M175.284,18.815c-0.543-0.073-1.129-0.112-1.768-0.115l-0.165,0.782
				C173.947,19.17,174.602,18.943,175.284,18.815z"/>
			<path style="fill:#FF9C0D;" d="M177.231,28.372c0.392-1.917,0.566-3.356,0.566-4.402c0-2.615-1.046-3.138-2.44-3.138
				c-0.502,0-1.005,0.141-1.507,0.368c0.591,0.406,0.961,1.218,0.961,2.77c0,1.046-0.174,2.484-0.566,4.402
				c-1.154,5.561-2.057,7.862-3.494,8.556c0.695,0.242,1.346,0.248,1.817,0.248C174.747,37.176,175.792,35.302,177.231,28.372z"/>
			<polygon style="fill:#FF9C0D;" points="167.25,18.653 164.264,18.653 157.334,51.341 160.48,50.591 			"/>
			<path style="fill:#FF9C0D;" d="M169.168,39.094l-0.246,1.159c0.444,0.094,0.895,0.148,1.356,0.148
				c0.549,0,1.087-0.049,1.612-0.152C170.954,40.048,170.051,39.653,169.168,39.094z"/>
		</g>
		<g>
			<polygon style="fill:#FF9C0D;" points="189.62,13.208 186.634,13.208 182.434,40.949 185.42,40.949 			"/>
			<path style="fill:#FF9C0D;" d="M181.635,49.88c0-2.08,1.361-3.816,3.236-4.431c-0.468-0.155-0.967-0.242-1.49-0.242
				c-2.603,0-4.732,2.07-4.732,4.673c0,2.602,2.129,4.732,4.732,4.732c0.523,0,1.022-0.09,1.49-0.248
				C182.996,53.733,181.635,51.959,181.635,49.88z"/>
		</g>
	</g>
</g>
</svg>
